<svg
        version="1.1"
        id="Layer_1"
        xmlns="http://www.w3.org/2000/svg"
        x="0px"
        y="0px"
        viewBox="0 0 1024 1024"
      >
        <linearGradient
          id="SVGID_1_"
          gradientUnits="userSpaceOnUse"
          x1="169.0896"
          y1="517.7448"
          x2="854.868"
          y2="517.7448"
        >
          <stop offset="0" style={{ stopColor: "#F3742F" }} />
          <stop offset="1" style={{ stopColor: "#EC37CB" }} />
        </linearGradient>
        <path
          style={{ fill: "url(#SVGID_1_)" }}
          className="st0"
          d="M225,350.6c20.3,11.7,40.1,23.1,60.4,34.8c1.2-2,2.2-3.6,3.2-5.3c43.2-70.8,101-125.5,177.5-159.3
	c40.9-18.1,83.8-28.3,128.5-26.4c111.8,4.9,190,60.2,235.2,161.8c21.1,47.4,27.4,97.8,24.3,149.4c-3.7,62.1-21.9,119.8-52.1,174
	c-0.6,1-1.2,2-2.1,3.4c-20.1-11.6-40.1-23.1-60.4-34.8c-1.4,2.3-2.6,4.3-3.8,6.2c-41.3,68-96.2,121.4-168.4,155.9
	c-47.4,22.7-97.5,34.2-150.1,30.2c-90.2-6.8-159.1-49.6-206.1-127c-23.3-38.5-35.9-80.7-40.2-125.4c-8.2-84,11.3-161.9,52.3-235
	C223.7,352.5,224.2,351.8,225,350.6z M320.4,406.2c-0.7,0.5-1.1,0.7-1.2,0.9c-1,1.7-2.1,3.4-3,5.2c-21.5,39.3-34.5,81.1-36.9,125.9
	c-2.1,39.3,3.7,77.3,22.6,112.2c28.6,52.9,73.3,80.2,133.7,80.8c25.9,0.3,50.6-5.6,74.2-15.6c55-23.2,96.4-62,128.1-111.9
	c2.2-3.5,4.3-7,6.6-10.8c20.2,11.7,40.2,23.2,60,34.5c0.8-0.7,1.1-0.8,1.3-1.1c0.8-1.4,1.7-2.9,2.5-4.3
	c12.5-22.9,22.1-46.9,28.3-72.3c11.5-46.7,12.3-93.3-3.6-139.3c-15.1-43.8-42.6-77-86.1-95.1c-36.8-15.3-74.4-14.3-112-2.9
	c-51.9,15.8-93.3,47-127.1,88.7c-10,12.4-18.7,25.8-28.3,39.2C360.3,429.2,340.4,417.7,320.4,406.2z"
        />
        <linearGradient
          id="SVGID_2_"
          gradientUnits="userSpaceOnUse"
          x1="443.4908"
          y1="517.4901"
          x2="586.8218"
          y2="517.4901"
        >
          <stop offset="0" style={{ stopColor: "#F3742F" }} />
          <stop offset="1" style={{ stopColor: "#EC37CB" }} />
        </linearGradient>
        <path
          style={{ fill: "url(#SVGID_2_)" }}
          className="st1"
          d="M443.5,517.2c23.6-23.6,47.8-47.8,71.4-71.4c24,24,48.2,48.2,71.9,72c-23.4,23.4-47.6,47.6-71.4,71.4
	C491.9,565.6,467.6,541.3,443.5,517.2z"
        />
      </svg>