<svg width="312" height="77" viewBox="0 0 312 77" fill="none" xmlns="http://www.w3.org/2000/svg">
<path d="M56.7114 37.2923L45.6414 48.2923L34.6414 37.3622L45.7114 26.3622C45.9514 26.4822 55.9514 36.3723 56.7114 37.2923Z" fill="black"/>
<path d="M64.2414 55.8823L68.6114 60.1722L68.2314 60.5322C65.5538 63.2297 62.6124 65.6519 59.4514 67.7623C55.7863 70.2008 51.8241 72.16 47.6614 73.5923C44.5136 74.68 41.2584 75.4276 37.9514 75.8223C34.8755 76.1873 31.7672 76.1873 28.6914 75.8223C23.2558 75.2515 18.0486 73.3336 13.5414 70.2423C7.95819 66.4016 3.80779 60.8162 1.74136 54.3623C0.794519 51.4887 0.229684 48.5031 0.0613653 45.4823C-0.281421 39.0288 0.81506 32.5798 3.27139 26.6023C5.38177 21.3046 8.36286 16.397 12.0914 12.0823C13.2514 10.7223 14.5214 9.46225 15.7414 8.15225L16.1014 7.81226L27.1614 18.8122L26.8214 19.1023C24.6652 21.1587 22.7496 23.4534 21.1114 25.9423C18.1384 30.3297 16.2782 35.375 15.6914 40.6423C15.4237 43.0545 15.5589 45.4944 16.0914 47.8623C16.6777 50.6947 18.0449 53.3066 20.0383 55.4025C22.0317 57.4985 24.5718 58.9948 27.3714 59.7223C30.3737 60.5205 33.5063 60.7042 36.5814 60.2623C40.1728 59.7706 43.6552 58.6752 46.8814 57.0223C50.7452 55.0834 54.2572 52.5112 57.2714 49.4123L57.5714 49.1323L61.4614 53.0123L64.2414 55.8823Z" fill="black"/>
<path d="M89.8713 34.5322C89.622 40.2438 88.2918 45.8563 85.9514 51.0722C83.4165 56.7833 79.8999 62.0057 75.5613 66.5022L75.2513 66.7923L68.6113 60.1722L64.2014 55.8622C64.2831 55.7459 64.3769 55.6387 64.4814 55.5422C65.7249 54.235 66.8743 52.8416 67.9213 51.3722C71.4598 46.5906 73.6401 40.9413 74.2314 35.0222C74.506 32.315 74.2478 29.5802 73.4714 26.9722C72.8687 24.8315 71.8017 22.8499 70.3464 21.1682C68.8912 19.4865 67.0833 18.1461 65.0513 17.2422C62.5344 16.1187 59.8076 15.5427 57.0513 15.5522C53.5686 15.5262 50.1098 16.1292 46.8414 17.3322C42.0752 19.069 37.7081 21.7491 34.0013 25.2122L33.7513 25.4022L27.1113 18.7922L22.6713 14.4122C22.8313 14.2622 23.0313 14.1322 23.1713 14.0022C27.1081 10.3 31.5778 7.20895 36.4313 4.83224C40.3963 2.89413 44.6092 1.51114 48.9514 0.722241C52.3411 0.0795236 55.7981 -0.135487 59.2413 0.0822413C64.2384 0.344022 69.1154 1.71011 73.5214 4.08224C77.1792 6.05474 80.3972 8.75118 82.9794 12.0073C85.5617 15.2635 87.4541 19.0112 88.5414 23.0222C89.605 26.7616 90.0541 30.6489 89.8713 34.5322Z" fill="black"/>
<path d="M96.7114 16.0222H109.311L125.681 49.3122H125.801L142.111 16.0222H154.711L132.411 60.0222H119.071L96.7114 16.0222Z" fill="black"/>
<path d="M156.751 18.1922C156.751 14.7422 159.341 12.3922 163.111 12.3922C166.881 12.3922 169.471 14.7422 169.471 18.1922C169.471 21.6422 166.881 24.0022 163.111 24.0022C159.341 24.0022 156.751 21.5922 156.751 18.1922ZM157.671 28.3822H168.541V60.0222H157.671V28.3822Z" fill="black"/>
<path d="M172.951 51.8623L200.131 35.4923H173.611V28.3823H214.191V36.5423L186.701 52.9123H214.811V60.0223H172.951V51.8623Z" fill="black"/>
<path d="M216.291 28.3823H228.021L240.871 52.8423H240.991L253.841 28.3823H265.581L247.731 60.0223H234.011L216.291 28.3823Z" fill="black"/>
<path d="M265.331 52.1023C265.331 45.9323 272.681 41.8523 285.531 40.7423L298.931 39.6323C300.411 39.5023 301.281 38.8823 301.281 37.9623C301.281 35.8623 296.771 34.0723 290.471 34.0723C282.471 34.0723 274.041 36.7823 269.161 40.6123L265.641 34.6123C270.831 30.2923 280.641 27.2623 290.411 27.2623C302.701 27.2623 311.961 31.4023 311.961 39.1223V60.0223H302.511L301.091 53.2223H301.031C297.761 57.9823 290.471 61.1323 281.571 61.1323C271.321 61.1223 265.331 57.9123 265.331 52.1023ZM301.091 45.4323V45.1823L286.391 46.4223C279.781 46.9123 276.201 48.1523 276.201 50.5023C276.201 52.8523 279.201 54.0823 284.851 54.0823C294.241 54.0823 301.091 50.4323 301.091 45.4323Z" fill="black"/>
</svg>
