<svg xmlns="http://www.w3.org/2000/svg" viewBox="0 0 166.92 168.72"><defs><style>.cls-1{fill:#fff;}.cls-2{fill:none;stroke:#a0c636;stroke-miterlimit:10;stroke-width:3px;}</style></defs><g id="Layer_2" data-name="Layer 2"><g id="Layer_1-2" data-name="Layer 1"><path class="cls-1" d="M6.9,88.63l-.13-7.78-1.09,0,.13,7.78Z"/><path class="cls-1" d="M.82,66.35,0,69.91l11.2,2.57L12,68.92c.62-2.71.51-5.78-4.32-6.89S1.44,63.63.82,66.35Zm9.57,4.57-9-2.06.52-2.26c.46-2,1.34-4.22,5.47-3.27s4,3.35,3.51,5.34Z"/><path class="cls-1" d="M5.08,52.39l-2.2,6.08L4,58.86l.87-2.42,8.66,3.13L12.61,62l1.07.39,2.21-6.08-1.08-.39-.87,2.4L5.29,55.18l.87-2.4Z"/><path class="cls-1" d="M18.2,45.22c-2.12-1.11-3.88.92-5.53,2.59-1.4,1.41-2.25,2.1-3.32,1.55s-.95-1.8-.22-3.2c.82-1.56,2.24-2.46,4-1.56l.62-1.18c-1.66-.87-4-.79-5.6,2.21-1.31,2.52-.92,4.12.64,4.93,1.81.94,3.11-.24,4.77-1.93,1.32-1.37,2.57-3,4.11-2.2,1.23.64,1.13,1.86.23,3.59-1.11,2.14-2.32,3.15-4.73,1.9l-.62,1.18c2.39,1.24,4.51,1,6.36-2.55C20.45,47.54,19.72,46,18.2,45.22Z"/><path class="cls-1" d="M16.91,41.84c2.7,2,5.95,1.91,8-.8a4.89,4.89,0,0,0-.61-6.92l-.79,1.07A3.59,3.59,0,0,1,24,40.36c-1.59,2.15-4,2.07-6.24.4s-3-3.93-1.41-6.08a3.57,3.57,0,0,1,5.07-1l.8-1.07A4.9,4.9,0,0,0,15.38,34C13.37,36.71,14.23,39.85,16.91,41.84Z"/><path class="cls-1" d="M25.17,31.13c2.31,2.43,5.52,2.92,8,.58s2.11-5.54-.2-8-5.51-2.9-7.94-.59S22.86,28.71,25.17,31.13Zm1-.92c-1.89-2-2.33-4.36-.36-6.23s4.3-1.3,6.19.68,2.35,4.36.39,6.22S28,32.21,26.14,30.21Z"/><path class="cls-1" d="M40.84,25.12,43,23.67l-3.4-11.62-1.09.75,3.22,11-.31.22-9.08-6.91-1.1.76Z"/><path class="cls-1" d="M53.87,17.62l-.51-1-5.15,2.6-1.82-3.59,4.42-2.24-.51-1-4.42,2.24L44.06,11,49.21,8.4l-.51-1-6.34,3.2,5.17,10.23Z"/><path class="cls-1" d="M57.09,16.31l-1.48-4.37,5.46-1.85,1.48,4.37L63.82,14,62.43,9.94c-.19-.57-.52-.74-1.14-.53L60,9.85l-.12-.37A2.43,2.43,0,0,0,61,6.23c-.83-2.43-2.68-2.48-5.28-1.6L52.13,5.86l3.69,10.88Zm-3.33-9.8,2.35-.8c1.85-.63,3-.84,3.72,1.17s-.39,2.56-2.24,3.19l-2.35.79Z"/><path class="cls-1" d="M74.36.51,70.73.85l1.06,11.44L75.43,12c2.77-.26,5.65-1.33,5.19-6.27S77.14.26,74.36.51ZM73,11l-.85-9.17,2.3-.21c2-.19,4.43,0,4.82,4.17s-1.94,4.81-4,5Z"/><path class="cls-1" d="M89,.19,82.51,0l0,1.14,2.58.08-.27,9.2-2.58-.07,0,1.14,6.47.19,0-1.14-2.56-.08.27-9.2,2.56.07Z"/><path class="cls-1" d="M90.52,5.93c-.55,3.35.68,6.11,4,6.66,2.93.48,4.76-1.15,5.43-5.1l.37.06L99.88,9l-.69,4.23,1.32.22.85-5.16c.09-.6-.16-.94-.82-1l-5.6-.92-.17,1.06L98.64,8c-.4,2.73-1.67,3.85-3.91,3.49-2.65-.44-3.35-2.54-2.89-5.32s2.16-4.47,4.81-4c2.24.37,3,1.74,2.93,3.65L100.9,6a4.55,4.55,0,0,0-4.06-5C93.56.45,91.07,2.6,90.52,5.93Z"/><path class="cls-1" d="M112,5.05l-6.16-2-.35,1.09L108,5l-2.81,8.77-2.45-.78L102.35,14l6.17,2,.34-1.09-2.43-.78,2.81-8.77,2.43.78Z"/><path class="cls-1" d="M115.28,6.32l-.49,1,3.61,1.72L114,18.39l1.19.57,4.45-9.32,3.58,1.71.49-1Z"/><path class="cls-1" d="M126.75,25.79l3-11.72-2.16-1.38-9.4,7.62,1.12.72,3.57-2.9,3.9,2.5-1.16,4.45Zm1.43-12,.32.2-1.4,5.44-3.27-2.1Z"/><path class="cls-1" d="M133.54,31.59l.74-.87-4.51-3.63,6.84-8-1-.86-6.94,8.11a.89.89,0,0,0,.12,1.39Z"/><path class="cls-1" d="M139.53,38.08,147.68,32l.43-.57.28.38L143,42.8l1.6,2.16,9.23-6.85-.79-1.06-8.15,6.05-.42.58-.29-.38,5.34-11L148,30.15,138.73,37Z"/><path class="cls-1" d="M146.45,48.26l4.06-2.17,2.84,4.63,1-.55-2.84-4.62,4-2.15,2.91,5.45,1-.54-3.54-6.63-10.11,5.4Z"/><path class="cls-1" d="M161,51.47l-1.07.39,1.35,3.77-9.74,3.5.45,1.25,9.74-3.5,1.34,3.74,1.08-.39Z"/><path class="cls-1" d="M156.64,69.12c1.69-.43,1.61-2.19,1.72-3.87.08-1.37.18-2,.94-2.16s1.14.45,1.37,1.31c.32,1.25,0,2-1.1,2.3l.33,1.3c1.3-.33,2.45-1.42,1.82-3.87-.46-1.8-1.55-2.64-2.8-2.32-1.42.36-1.57,1.68-1.66,3.28-.07,1.38,0,2.49-1,2.75-.8.21-1.23-.29-1.54-1.51-.39-1.51,0-2.46,1.39-2.81l-.33-1.3c-1.86.48-2.78,1.83-2.13,4.37C154.26,68.94,155.46,69.43,156.64,69.12Z"/><path class="cls-1" d="M159.33,77.08l.31,7.78,1.09,0L160.42,77Z"/><path class="cls-1" d="M166.25,99l.67-3.59-11.3-2.11L155,96.85c-.51,2.74-.27,5.81,4.6,6.72S165.74,101.7,166.25,99Zm-9.75-4.17,9.05,1.69-.42,2.27c-.38,2-1.17,4.28-5.33,3.5s-4.1-3.19-3.73-5.19Z"/><path class="cls-1" d="M162.48,113l1.94-6.15-1.08-.34-.77,2.45-8.75-2.76.77-2.45-1.08-.34-1.94,6.14,1.08.35.77-2.44,8.75,2.77-.77,2.43Z"/><path class="cls-1" d="M149.77,120.77c2.17,1,3.84-1.08,5.43-2.82,1.33-1.47,2.16-2.2,3.25-1.69s1,1.76.35,3.19c-.75,1.59-2.13,2.55-3.9,1.72l-.57,1.21c1.7.8,4.06.62,5.5-2.45,1.2-2.57.75-4.14-.84-4.89-1.85-.86-3.11.37-4.69,2.13-1.26,1.42-2.44,3.1-4,2.36-1.25-.58-1.21-1.8-.38-3.57,1-2.19,2.19-3.25,4.65-2.09l.57-1.22c-2.44-1.14-4.55-.81-6.25,2.82C147.43,118.54,148.22,120.05,149.77,120.77Z"/><path class="cls-1" d="M151.22,124.11c-2.78-1.89-6-1.65-7.92,1.15a4.91,4.91,0,0,0,.92,6.9l.75-1.11a3.59,3.59,0,0,1-.72-5.15c1.5-2.22,3.91-2.25,6.23-.69s3.18,3.81,1.68,6a3.59,3.59,0,0,1-5,1.27l-.75,1.11a4.91,4.91,0,0,0,6.73-1.75C155,129.07,154,126,151.22,124.11Z"/><path class="cls-1" d="M143.42,135.25c-2.42-2.35-5.65-2.71-8-.27s-1.9,5.64.52,8,5.64,2.7,8,.28S145.82,137.59,143.42,135.25Zm-.94,1c2,1.92,2.51,4.28.6,6.24s-4.26,1.47-6.23-.44-2.53-4.29-.63-6.23S140.5,134.28,142.48,136.21Z"/><path class="cls-1" d="M128,141.81l-2,1.53,3.85,11.47,1.06-.79-3.65-10.81.3-.23,9.35,6.54,1.07-.8Z"/><path class="cls-1" d="M115.23,149.88l.55,1,5.06-2.81,2,3.53L118.46,154l.55,1,4.35-2.41,2,3.52-5.06,2.81.56,1,6.23-3.46-5.58-10.05Z"/><path class="cls-1" d="M112.09,151.28l1.66,4.3-5.38,2.08-1.66-4.31-1.25.48,1.56,4c.22.57.55.72,1.16.48l1.28-.49.14.36a2.43,2.43,0,0,0-1,3.3c.93,2.4,2.78,2.36,5.34,1.38l3.56-1.37-4.14-10.73Zm3.73,9.65-2.31.89c-1.83.71-3,1-3.76-1s.28-2.57,2.1-3.27l2.32-.9Z"/><path class="cls-1" d="M95.42,167.74l3.62-.48-1.5-11.37-3.61.47c-2.76.37-5.6,1.54-5,6.45S92.66,168.1,95.42,167.74Zm1-10.55,1.19,9.12-2.29.3c-2,.26-4.42.22-5-4s1.76-4.87,3.78-5.14Z"/><path class="cls-1" d="M81,168.72l6.47-.11,0-1.14-2.57,0-.15-9.21,2.57,0v-1.14l-6.47.11v1.14l2.56-.05.15,9.21-2.56,0Z"/><path class="cls-1" d="M79.14,163c.42-3.37-.93-6.08-4.28-6.49-2.94-.36-4.71,1.35-5.21,5.33l-.38-.05.39-1.43.52-4.25L68.86,156l-.64,5.2c-.07.6.2.93.86,1l5.63.69.13-1.07L71,161.32c.28-2.74,1.51-3.92,3.76-3.64,2.67.32,3.45,2.39,3.11,5.19s-2,4.55-4.64,4.22c-2.25-.27-3.05-1.62-3.08-3.52l-1.33-.17A4.55,4.55,0,0,0,73,168.23C76.34,168.63,78.73,166.38,79.14,163Z"/><path class="cls-1" d="M57.7,164.81l6.24,1.71.3-1.1-2.48-.68,2.44-8.88,2.48.68.3-1.1-6.24-1.72-.3,1.1,2.47.68-2.44,8.88L58,163.71Z"/><path class="cls-1" d="M54.34,163.74l.44-1.05-3.68-1.58,4.07-9.52L54,151.07l-4.08,9.52L46.23,159l-.45,1Z"/><path class="cls-1" d="M42.1,144.7l-2.52,11.83,2.21,1.29,9.08-8-1.16-.67-3.44,3-4-2.34,1-4.5Zm-.93,12-.32-.19L42,151l3.35,2Z"/><path class="cls-1" d="M35.08,139.15l-.7.9L39,143.5l-6.51,8.26,1.05.83,6.61-8.39a.89.89,0,0,0-.17-1.38Z"/><path class="cls-1" d="M28.79,133l-7.92,6.4-.4.6-.3-.37,4.92-11.22-1.7-2.1-9,7.24.83,1,7.92-6.39.4-.6.3.37L19,139.14l1.69,2.09,9-7.23Z"/><path class="cls-1" d="M21.46,123l-4,2.33-3-4.52-1,.59,3,4.52-4,2.31-3.13-5.34-1,.57,3.8,6.5,9.92-5.8Z"/><path class="cls-1" d="M6.85,120.46,7.91,120,6.4,116.32,16,112.41l-.49-1.22-9.59,3.9-1.5-3.68-1.06.43Z"/><path class="cls-1" d="M10.44,102.63c-1.67.5-1.51,2.26-1.55,3.94,0,1.37-.11,2-.85,2.2s-1.16-.4-1.42-1.26c-.37-1.23,0-2,1-2.34l-.38-1.28c-1.28.38-2.39,1.52-1.66,3.93.54,1.78,1.66,2.58,2.9,2.21,1.4-.42,1.5-1.74,1.52-3.35,0-1.38-.13-2.48.88-2.79.8-.24,1.25.24,1.61,1.44.45,1.5.06,2.47-1.28,2.87l.39,1.28c1.84-.55,2.7-1.93,1.94-4.45C12.83,102.71,11.61,102.28,10.44,102.63Z"/><path class="cls-2" d="M64.1,95.45l-.8-32.1,31.86,4"/><path class="cls-2" d="M63.3,63.36l37.93,41.9"/></g></g></svg>