<?xml version="1.0" encoding="utf-8"?>
<!-- Generator: Adobe Illustrator 25.3.1, SVG Export Plug-In . SVG Version: 6.00 Build 0)  -->
<svg version="1.1" id="Layer_1" xmlns="http://www.w3.org/2000/svg" xmlns:xlink="http://www.w3.org/1999/xlink" x="0px" y="0px"
	 viewBox="0 0 32 32" style="enable-background:new 0 0 32 32;" xml:space="preserve">
<style type="text/css">
	.st0{fill:#FFFFFF;}
</style>
<path class="st0" d="M29.68,32.03H2.32C1.04,32.03,0,30.99,0,29.71V2.35c0-1.28,1.04-2.32,2.32-2.32h27.36
	c1.28,0,2.32,1.04,2.32,2.32v27.36C32,30.99,30.96,32.03,29.68,32.03z"/>
<g>
	<path d="M19.67,15.8c-1.15,1.14-2.29,2.27-3.44,3.41c-1.12-1.12-2.26-2.26-3.41-3.4c1.15-1.14,2.29-2.27,3.44-3.41
		C16.32,12.44,19.42,15.51,19.67,15.8z"/>
	<path d="M22.01,21.57l1.36,1.33c-0.04,0.04-0.08,0.08-0.12,0.11c-0.83,0.84-1.74,1.59-2.73,2.25c-1.14,0.76-2.36,1.37-3.66,1.81
		c-0.99,0.34-2,0.57-3.03,0.69c-0.96,0.11-1.92,0.12-2.88,0c-1.71-0.2-3.29-0.75-4.71-1.73c-1.77-1.23-2.99-2.89-3.67-4.94
		c-0.3-0.9-0.47-1.82-0.52-2.76c-0.12-2.03,0.25-3.98,1-5.87c0.66-1.66,1.58-3.16,2.74-4.51c0.36-0.42,0.76-0.81,1.14-1.22
		c0.03-0.03,0.07-0.07,0.11-0.11l3.43,3.42c-0.04,0.03-0.07,0.06-0.1,0.09c-0.67,0.64-1.27,1.35-1.78,2.13
		c-0.91,1.39-1.52,2.9-1.69,4.57c-0.08,0.75-0.04,1.5,0.13,2.24c0.22,0.94,0.64,1.77,1.33,2.45c0.61,0.61,1.35,1,2.17,1.23
		c0.94,0.26,1.89,0.29,2.86,0.17c1.13-0.14,2.2-0.49,3.22-1c1.21-0.6,2.28-1.4,3.23-2.36c0.03-0.03,0.06-0.05,0.09-0.09l1.21,1.2
		C21.42,20.98,21.7,21.27,22.01,21.57z"/>
	<path d="M29.97,14.94c-0.07,1.79-0.5,3.5-1.22,5.14c-0.79,1.79-1.88,3.38-3.23,4.79c-0.03,0.03-0.06,0.05-0.09,0.09
		c-0.69-0.69-1.37-1.37-2.07-2.06c0,0,0,0,0,0l-1.37-1.34c0.03-0.05,0.07-0.08,0.09-0.1c0.39-0.41,0.75-0.84,1.07-1.3
		c1.08-1.53,1.8-3.19,1.96-5.07c0.07-0.85,0.02-1.69-0.24-2.5c-0.43-1.39-1.29-2.41-2.62-3.02c-0.79-0.36-1.62-0.51-2.48-0.52
		c-1.09-0.02-2.15,0.19-3.17,0.55c-1.5,0.54-2.82,1.37-3.99,2.45c-0.02,0.02-0.05,0.04-0.08,0.06c-0.69-0.69-1.37-1.37-2.06-2.05
		c0,0,0,0-0.01,0L9.09,8.7C9.14,8.65,9.2,8.61,9.24,8.57c1.23-1.15,2.6-2.11,4.12-2.85c1.23-0.6,2.52-1.04,3.88-1.29
		c1.06-0.19,2.12-0.27,3.2-0.2c1.57,0.1,3.06,0.48,4.44,1.24c2.37,1.31,3.92,3.29,4.68,5.88C29.9,12.52,30.02,13.72,29.97,14.94z"/>
</g>
</svg>
