<svg width="426" height="426" viewBox="0 0 426 426" fill="none" xmlns="http://www.w3.org/2000/svg">
<path d="M426 212.973C425.998 198.431 422.009 184.168 414.466 171.735C406.923 159.303 396.116 149.176 383.219 142.458C387.592 128.595 388.077 113.798 384.62 99.6791C381.162 85.5601 373.896 72.6607 363.613 62.3869C353.334 52.0937 340.425 44.8217 326.296 41.3643C312.166 37.9069 297.358 38.3969 283.487 42.7811C276.769 29.8844 266.643 19.0769 254.21 11.534C241.777 3.99118 227.514 0.0019197 212.973 1.52588e-05C198.431 0.0019197 184.168 3.99118 171.735 11.534C159.303 19.0769 149.176 29.8844 142.458 42.7811C128.596 38.3953 113.796 37.9045 99.6746 41.3622C85.5531 44.82 72.6539 52.0932 62.3869 62.3869C52.0932 72.6539 44.82 85.5531 41.3622 99.6746C37.9045 113.796 38.3953 128.596 42.7811 142.458C29.8844 149.176 19.0769 159.303 11.534 171.735C3.99117 184.168 0.00190774 198.431 3.30253e-06 212.973C-0.00418869 227.516 3.98247 241.781 11.526 254.215C19.0695 266.648 29.8804 276.774 42.7811 283.487C38.3969 297.358 37.9068 312.166 41.3643 326.295C44.8217 340.425 52.0937 353.334 62.3869 363.613C72.6607 373.896 85.5599 381.162 99.6789 384.62C113.798 388.077 128.595 387.592 142.458 383.219C149.176 396.115 159.303 406.923 171.735 414.466C184.168 422.009 198.431 425.998 212.973 426C227.514 425.998 241.777 422.009 254.21 414.466C266.643 406.923 276.769 396.115 283.487 383.219C297.359 387.591 312.164 388.074 326.291 384.618C340.419 381.161 353.327 373.896 363.613 363.613C373.896 353.327 381.161 340.419 384.618 326.291C388.074 312.164 387.591 297.359 383.219 283.487C396.119 276.774 406.93 266.648 414.474 254.215C422.017 241.781 426.004 227.516 426 212.973Z" fill="url(#paint0_linear)"/>
<path d="M117.25 234.556L188.644 305.949L308.805 185.789C311.103 183.498 312.926 180.776 314.171 177.779C315.415 174.782 316.055 171.569 316.055 168.325C316.055 165.08 315.415 161.867 314.171 158.87C312.926 155.873 311.103 153.151 308.805 150.861C306.514 148.563 303.793 146.739 300.796 145.495C297.799 144.251 294.586 143.61 291.341 143.61C288.096 143.61 284.883 144.251 281.886 145.495C278.89 146.739 276.168 148.563 273.877 150.861L188.644 236.094L152.343 199.738C147.693 195.12 141.405 192.528 134.852 192.528C128.298 192.528 122.011 195.12 117.36 199.738C115.061 202.033 113.236 204.76 111.991 207.761C110.746 210.762 110.105 213.98 110.105 217.229C110.105 220.479 110.746 223.696 111.991 226.697C113.236 229.699 115.061 232.425 117.36 234.721L117.25 234.556Z" fill="white"/>
<defs>
<linearGradient id="paint0_linear" x1="3.4481e-06" y1="213" x2="426" y2="225" gradientUnits="userSpaceOnUse">
<stop stop-color="#FF7D20"/>
<stop offset="1" stop-color="#EB35D1"/>
</linearGradient>
</defs>
</svg>
