<svg width="233" height="48" viewBox="0 0 233 48" fill="none" xmlns="http://www.w3.org/2000/svg">
<path d="M34.5248 23.5235L27.7903 30.2131L21.1211 23.5511L27.8555 16.8718C27.9722 16.9372 34.0408 22.9629 34.5248 23.5235Z" fill="white"/>
<path d="M39.1059 34.8527L41.7592 37.4666L41.5292 37.6867C39.9038 39.3333 38.1142 40.8085 36.1884 42.0891C33.9608 43.5764 31.5522 44.7715 29.0214 45.6454C27.0989 46.3102 25.1102 46.7645 23.0902 47.0005C21.219 47.2206 19.3286 47.2206 17.4575 47.0005C14.1514 46.6528 10.9839 45.4849 8.24141 43.6024C4.84576 41.2621 2.32233 37.8577 1.06761 33.9241C0.488988 32.1738 0.142771 30.3548 0.0378797 28.5139C-0.172408 24.5824 0.494801 20.6533 1.99094 17.0127C3.27454 13.7847 5.08656 10.7938 7.35241 8.16326C8.0595 7.33438 8.8318 6.56396 9.5732 5.75571C9.63842 5.68692 9.7105 5.62845 9.79287 5.54935L16.517 12.2561C16.4381 12.3249 16.3729 12.3765 16.3111 12.4349C14.9999 13.6874 13.8346 15.0847 12.8375 16.6C11.0328 19.2698 9.90094 22.3382 9.53888 25.5423C9.38041 27.0112 9.46391 28.4961 9.78601 29.9378C10.1414 31.6647 10.9731 33.257 12.1867 34.5338C13.4002 35.8106 14.9469 36.7206 16.6509 37.1605C18.4739 37.6506 20.3767 37.7675 22.2458 37.5044C24.442 37.2108 26.5727 36.5468 28.5477 35.5406C30.8913 34.3711 33.0254 32.8207 34.8634 30.9524C34.9184 30.8974 34.9767 30.8493 35.0454 30.7839L37.4137 33.1468C37.9629 33.6833 38.5155 34.2508 39.1059 34.8527Z" fill="white"/>
<path d="M54.6952 21.8415C54.5402 25.3242 53.7248 28.7453 52.2925 31.9223C50.7524 35.4027 48.6147 38.5854 45.9768 41.3255L45.7915 41.5009L41.7481 37.4631L39.0708 34.8354C39.1195 34.7662 39.1747 34.7017 39.2355 34.6428C39.9919 33.8469 40.6915 32.9987 41.3293 32.1046C43.4437 29.1124 44.8476 25.8415 45.1668 22.1545C45.3343 20.5053 45.178 18.8391 44.7068 17.25C44.3402 15.9473 43.692 14.7414 42.8081 13.7178C41.9242 12.6943 40.8264 11.8782 39.5925 11.3274C38.0644 10.6439 36.4091 10.2922 34.7356 10.2956C32.6173 10.2785 30.5134 10.6467 28.5263 11.3825C25.6243 12.4421 22.9667 14.0801 20.7141 16.1976C20.6695 16.2354 20.618 16.2698 20.563 16.3076L16.5299 12.2801L13.832 9.60775C13.9281 9.51833 14.0517 9.43922 14.1341 9.36355C16.5264 7.11052 19.2418 5.22898 22.19 3.78148C24.5933 2.59702 27.1465 1.74654 29.7792 1.25355C31.8407 0.863614 33.9426 0.731909 36.0365 0.861459C39.0754 1.01889 42.0415 1.8506 44.7206 3.29653C49.3681 5.86229 52.3921 9.73844 53.8783 14.8287C54.5285 17.1064 54.8044 19.475 54.6952 21.8415Z" fill="white"/>
<path d="M59.9609 10.571H67.6256L77.5797 30.8632H77.6517L87.5681 10.571H95.2293L81.6711 37.367H73.574L59.9609 10.571Z" fill="white"/>
<path d="M96.4727 11.8882C96.4727 9.77984 98.0516 8.34906 100.341 8.34906C102.63 8.34906 104.209 9.77984 104.209 11.8882C104.209 13.9965 102.634 15.4273 100.341 15.4273C98.0481 15.4273 96.4727 13.9587 96.4727 11.8882ZM97.0356 18.0996H103.646V37.3601H97.0356V18.0996Z" fill="white"/>
<path d="M106.352 32.4005L122.879 22.4264H106.726V18.0996H131.405V23.0661L114.689 33.0402H131.779V37.3669H106.352V32.4005Z" fill="white"/>
<path d="M132.68 18.0996H139.819L147.628 33.0161H147.714L155.526 18.1134H162.662L151.809 37.3738H143.458L132.68 18.0996Z" fill="white"/>
<path d="M162.504 32.5518C162.504 28.7685 166.966 26.3025 174.789 25.6249L182.937 24.937C183.84 24.8614 184.365 24.4865 184.365 23.9224C184.365 22.643 181.619 21.5493 177.792 21.5493C172.945 21.5493 167.8 23.2071 164.835 25.5389L162.693 21.8898C165.847 19.2552 171.82 17.4186 177.754 17.4186C185.23 17.4186 190.863 19.9397 190.863 24.6413V37.3669H185.131L184.266 33.2397H184.228C182.237 36.139 177.806 38.0548 172.396 38.0548C166.149 38.0444 162.504 36.0874 162.504 32.5518ZM184.252 28.4865V28.3351L175.327 29.0884C171.308 29.3876 169.129 30.1408 169.129 31.5716C169.129 33.0023 170.934 33.7556 174.387 33.7556C180.085 33.7556 184.252 31.5337 184.252 28.4865Z" fill="white"/>
<path d="M198 25.069V13H200.974C203.822 13 205.531 13.5706 205.531 15.9616C205.555 16.2821 205.515 16.6041 205.413 16.9088C205.31 17.2134 205.148 17.4944 204.936 17.7353C204.723 17.9762 204.465 18.1721 204.176 18.3115C203.887 18.4508 203.573 18.5307 203.252 18.5466V18.889C205.098 18.9232 206.448 19.7963 206.448 21.8677C206.448 24.2301 204.739 25.069 201.891 25.069H198ZM199.139 18.3069H200.985C203.121 18.3069 204.403 17.9645 204.403 16.1328C204.403 14.1127 203.104 13.9587 200.985 13.9587H199.139V18.3069ZM199.139 24.1103H201.874C204.01 24.1103 205.292 23.6994 205.292 21.6965C205.292 19.8476 203.993 19.2656 201.874 19.2656H199.139V24.1103Z" fill="white"/>
<path d="M212.396 16.6207C214.475 16.6207 215.811 18.0643 215.811 20.5742V21.0335H209.83C209.921 22.6739 210.605 24.1503 212.563 24.1503C213.149 24.2082 213.734 24.0263 214.203 23.6406C214.671 23.2549 214.989 22.6934 215.093 22.067H216.105C215.801 23.3465 214.951 25.069 212.598 25.069C209.957 25.069 208.864 23.084 208.864 20.7382C208.828 18.1135 210.316 16.6207 212.396 16.6207ZM214.809 20.1148C214.827 19.7687 214.777 19.4224 214.662 19.0989C214.546 18.7754 214.369 18.4822 214.14 18.2386C213.912 17.995 213.638 17.8067 213.338 17.6861C213.037 17.5656 212.716 17.5155 212.396 17.5393C212.069 17.5171 211.741 17.5669 211.433 17.6859C211.124 17.8049 210.841 17.9906 210.601 18.2315C210.361 18.4725 210.169 18.7637 210.036 19.0875C209.904 19.4113 209.834 19.7608 209.83 20.1148H214.809Z" fill="white"/>
<path d="M220.34 24.1599L223.343 23.9789V24.9002L220.323 25.0647C219.542 25.1141 219.166 24.7357 219.166 23.968V17.6781H217.309V16.7568H219.166V14.5359L220.323 14.2069V16.7568H222.979V17.6781H220.323L220.34 24.1599Z" fill="white"/>
<path d="M227.181 20.3092L230.662 19.9977C230.56 18.3584 229.665 17.5387 228.161 17.5387C226.911 17.5387 225.677 18.0852 225.677 19.7846H224.551C224.551 18.1781 225.767 16.6207 228.15 16.6207C230.532 16.6207 231.766 18.2108 231.766 20.2764V23.9813H232.999V24.8993H231.591C231.466 24.9122 231.339 24.8978 231.22 24.857C231.101 24.8163 230.994 24.7502 230.904 24.6638C230.815 24.5774 230.747 24.4727 230.705 24.3574C230.663 24.2421 230.648 24.1192 230.662 23.9977V23.5059L230.831 22.6862H230.493C230.346 23.3897 229.942 24.0179 229.355 24.4548C228.768 24.8917 228.038 25.1078 227.299 25.0632C224.9 25.0632 224.562 23.4895 224.562 22.637C224.562 21.3747 225.339 20.4731 227.181 20.3092ZM227.401 24.1343C227.839 24.1485 228.275 24.0742 228.682 23.9161C229.089 23.758 229.457 23.5195 229.764 23.2158C230.07 22.9121 230.309 22.5498 230.463 22.1519C230.618 21.7541 230.685 21.3294 230.662 20.9048L227.35 21.2163C226.224 21.3146 225.66 21.6589 225.66 22.5277C225.639 22.7516 225.669 22.9773 225.75 23.1881C225.831 23.3988 225.96 23.589 226.128 23.7446C226.295 23.9001 226.496 24.017 226.717 24.0864C226.937 24.1557 227.171 24.1758 227.401 24.1452V24.1343Z" fill="white"/>
</svg>
